<svg width="117" height="24" viewBox="0 0 117 24" fill="none" xmlns="http://www.w3.org/2000/svg">
<path d="M106.929 13.9154L110.381 19.7752H116.847L110.381 9.54112L117 0H110.534L106.929 5.81492L104.257 9.54112L106.929 13.9154Z" fill="#3DA229"/>
<path d="M107.597 13.9154L104.751 17.7727H98.4319L104.145 9.54113L98.4143 1.90357H104.88L107.597 5.81493L110.269 9.54113L107.597 13.9154Z" fill="#222720"/>
<path d="M105.059 7.48644V12.1153H95.4405V7.48644H105.059Z" fill="#222720"/>
<path d="M91.2941 11.2972C91.2941 11.6432 91.2707 11.9891 91.2238 12.3351H82.5266C82.5735 13.027 82.7689 13.546 83.1127 13.8919C83.4722 14.2228 83.9254 14.3883 84.4724 14.3883C85.2382 14.3883 85.7851 14.0574 86.1133 13.3955H91.0128C90.8096 14.268 90.4111 15.0501 89.8172 15.7421C89.239 16.4189 88.5045 16.9529 87.6137 17.344C86.7228 17.7351 85.7383 17.9306 84.6599 17.9306C83.3627 17.9306 82.2063 17.6674 81.1904 17.1409C80.1902 16.6145 79.401 15.8624 78.8227 14.8847C78.2601 13.907 77.9788 12.7563 77.9788 11.4326C77.9788 10.1089 78.2601 8.96572 78.8227 8.00305C79.3854 7.02533 80.1668 6.27324 81.167 5.74678C82.1828 5.22032 83.3471 4.95709 84.6599 4.95709C85.957 4.95709 87.1057 5.2128 88.1059 5.72422C89.1062 6.23564 89.8876 6.97269 90.4502 7.93536C91.0128 8.88299 91.2941 10.0036 91.2941 11.2972ZM86.6056 10.1916C86.6056 9.65013 86.4181 9.22896 86.043 8.92812C85.6679 8.61224 85.1991 8.4543 84.6365 8.4543C84.0739 8.4543 83.6128 8.60472 83.2534 8.90556C82.8939 9.19135 82.6595 9.62004 82.5501 10.1916H86.6056Z" fill="#222720"/>
<path d="M67.6481 4.95709C68.5389 4.95709 69.3125 5.13007 69.9688 5.47603C70.6409 5.82199 71.1566 6.28828 71.5161 6.87491V5.11502H76.1108V17.6373C76.1108 18.8256 75.8763 19.8936 75.4075 20.8412C74.9386 21.8039 74.2041 22.571 73.2039 23.1426C72.2193 23.7142 70.9691 24 69.4531 24C67.4214 24 65.7961 23.5412 64.5771 22.6237C63.3581 21.7061 62.6626 20.4577 62.4907 18.8783H67.0151C67.1089 19.2844 67.3433 19.6003 67.7184 19.8259C68.0935 20.0515 68.5779 20.1643 69.1718 20.1643C70.7346 20.1643 71.5161 19.322 71.5161 17.6373V16.0128C71.1566 16.5994 70.6409 17.0657 69.9688 17.4117C69.3125 17.7577 68.5389 17.9306 67.6481 17.9306C66.601 17.9306 65.6476 17.6674 64.7881 17.1409C63.9442 16.6145 63.2721 15.8624 62.772 14.8847C62.2876 13.8919 62.0453 12.7412 62.0453 11.4326C62.0453 10.1239 62.2876 8.98077 62.772 8.00305C63.2721 7.02533 63.9442 6.27324 64.7881 5.74678C65.6476 5.22032 66.601 4.95709 67.6481 4.95709ZM71.5161 11.4326C71.5161 10.6203 71.2816 9.98105 70.8128 9.51475C70.3596 9.04846 69.7969 8.81531 69.1249 8.81531C68.4373 8.81531 67.8669 9.04846 67.4136 9.51475C66.9604 9.966 66.7338 10.6053 66.7338 11.4326C66.7338 12.2448 66.9604 12.8916 67.4136 13.373C67.8669 13.8393 68.4373 14.0724 69.1249 14.0724C69.7969 14.0724 70.3596 13.8393 70.8128 13.373C71.2816 12.9067 71.5161 12.2599 71.5161 11.4326Z" fill="#222720"/>
<path d="M56.9052 7.34874C57.4209 6.62673 58.0461 6.05515 58.7806 5.63398C59.5151 5.21281 60.3043 5.00222 61.1483 5.00222V9.71782H59.8589C58.8587 9.71782 58.1164 9.90585 57.6319 10.2819C57.1474 10.6579 56.9052 11.3123 56.9052 12.2448V17.7727H52.3105V5.11503H56.9052V7.34874Z" fill="#222720"/>
<path d="M50.4302 11.2972C50.4302 11.6432 50.4067 11.9891 50.3598 12.3351H41.6627C41.7096 13.027 41.9049 13.546 42.2487 13.8919C42.6082 14.2228 43.0614 14.3883 43.6084 14.3883C44.3742 14.3883 44.9212 14.0574 45.2494 13.3955H50.1488C49.9457 14.268 49.5472 15.0501 48.9533 15.7421C48.375 16.4189 47.6405 16.9529 46.7497 17.344C45.8589 17.7351 44.8743 17.9306 43.796 17.9306C42.4988 17.9306 41.3423 17.6674 40.3265 17.1409C39.3263 16.6145 38.537 15.8624 37.9588 14.8847C37.3962 13.907 37.1149 12.7563 37.1149 11.4326C37.1149 10.1089 37.3962 8.96572 37.9588 8.00305C38.5214 7.02533 39.3028 6.27324 40.303 5.74678C41.3189 5.22032 42.4832 4.95709 43.796 4.95709C45.0931 4.95709 46.2418 5.2128 47.242 5.72422C48.2422 6.23564 49.0236 6.97269 49.5862 7.93536C50.1488 8.88299 50.4302 10.0036 50.4302 11.2972ZM45.7417 10.1916C45.7417 9.65013 45.5541 9.22896 45.1791 8.92812C44.804 8.61224 44.3351 8.4543 43.7725 8.4543C43.2099 8.4543 42.7489 8.60472 42.3894 8.90556C42.03 9.19135 41.7955 9.62004 41.6861 10.1916H45.7417Z" fill="#222720"/>
<path d="M30.0263 5.00222C31.6829 5.00222 32.98 5.48356 33.9177 6.44623C34.871 7.40891 35.3477 8.72507 35.3477 10.3947V17.7727H30.753V10.9813C30.753 10.3045 30.5576 9.77799 30.1669 9.40195C29.7762 9.0259 29.2448 8.83788 28.5728 8.83788C27.9008 8.83788 27.3694 9.0259 26.9787 9.40195C26.588 9.77799 26.3927 10.3045 26.3927 10.9813V17.7727H21.798V10.9813C21.798 10.3045 21.6026 9.77799 21.2119 9.40195C20.8368 9.0259 20.3133 8.83788 19.6413 8.83788C18.9536 8.83788 18.4144 9.0259 18.0237 9.40195C17.633 9.77799 17.4377 10.3045 17.4377 10.9813V17.7727H12.843V5.11503H17.4377V6.78467C17.844 6.24317 18.3676 5.81448 19.0083 5.4986C19.6647 5.16768 20.4149 5.00222 21.2588 5.00222C22.2277 5.00222 23.0873 5.20528 23.8375 5.61141C24.6032 6.01754 25.2049 6.58913 25.6425 7.32618C26.1114 6.63426 26.7287 6.07771 27.4945 5.65654C28.2603 5.22033 29.1042 5.00222 30.0263 5.00222Z" fill="#222720"/>
<path d="M4.59471 5.40835V8.00306H9.86926L8.67093 11.3649H4.59471V14.2304H10.5725V17.7727H0V1.86601H10.5725V5.40835H4.59471Z" fill="#222720"/>
</svg>
