<svg width="50" height="50" viewBox="0 0 50 50" fill="none" xmlns="http://www.w3.org/2000/svg">
<rect x="0.8" y="0.8" width="48.4" height="48.4" rx="24.2" fill="white"/>
<rect x="0.8" y="0.8" width="48.4" height="48.4" rx="24.2" stroke="#DFE8DD" stroke-width="1.6"/>
<path d="M25 28.5C27.21 28.5 29 26.71 29 24.5V19C29 16.79 27.21 15 25 15C22.79 15 21 16.79 21 19V24.5C21 26.71 22.79 28.5 25 28.5Z" stroke="#3DA229" stroke-width="1.5" stroke-linecap="round" stroke-linejoin="round"/>
<path d="M17.3496 22.6499V24.3499C17.3496 28.5699 20.7796 31.9999 24.9996 31.9999C29.2196 31.9999 32.6496 28.5699 32.6496 24.3499V22.6499" stroke="#3DA229" stroke-width="1.5" stroke-linecap="round" stroke-linejoin="round"/>
<path d="M23.6094 19.4301C24.5094 19.1001 25.4894 19.1001 26.3894 19.4301" stroke="#3DA229" stroke-width="1.5" stroke-linecap="round" stroke-linejoin="round"/>
<path d="M24.1992 21.5498C24.7292 21.4098 25.2792 21.4098 25.8092 21.5498" stroke="#3DA229" stroke-width="1.5" stroke-linecap="round" stroke-linejoin="round"/>
<path d="M25 32V35" stroke="#3DA229" stroke-width="1.5" stroke-linecap="round" stroke-linejoin="round"/>
</svg>
