<svg width="20" height="18" viewBox="0 0 20 18" fill="none" xmlns="http://www.w3.org/2000/svg">
<path d="M10.0002 3V15M10.0002 3L7.75016 0.75M10.0002 3L12.2502 0.75M10.0002 15L7.75016 17.25M10.0002 15L12.2502 17.25M4.80397 6L15.1963 12M4.80397 6L1.73047 6.82359M4.80397 6L3.98047 2.92641M15.1963 12L16.0198 15.0736M15.1963 12L18.2698 11.1764M4.80397 12L15.1963 6M4.80397 12L3.98047 15.0736M4.80397 12L1.73047 11.1764M15.1963 6L18.2698 6.82359M15.1963 6L16.0198 2.92641" stroke="#303030" stroke-width="1.5" stroke-linecap="round" stroke-linejoin="round"/>
</svg>
