<svg xmlns="http://www.w3.org/2000/svg" width="20" height="16" viewBox="0 0 20 16" fill="none">
<path d="M11.1776 12.6565L11.179 12.6481C11.2039 12.5019 11.2821 12.3702 11.3984 12.2782C11.5147 12.1862 11.661 12.1406 11.809 12.1501L11.8184 12.1507L11.8183 12.1512C11.9432 12.1711 12.0586 12.23 12.1481 12.3194C12.2375 12.4089 12.2964 12.5243 12.3163 12.6492L12.3176 12.657V12.6649L12.3176 12.7197L12.3176 12.7199M11.1776 12.6565L13.7176 11.3049C13.9932 11.3215 14.258 11.4184 14.4792 11.5836C14.7005 11.7488 14.8685 11.9752 14.9627 12.2347C15.0569 12.4943 15.0731 12.7758 15.0093 13.0444C14.9454 13.3131 14.8044 13.5572 14.6035 13.7467C14.4027 13.9361 14.1508 14.0627 13.8789 14.1108C13.6069 14.1588 13.3269 14.1263 13.0733 14.0171C12.8196 13.908 12.6034 13.727 12.4514 13.4965C12.2994 13.266 12.2181 12.9961 12.2176 12.7199H12.3176M11.1776 12.6565V12.6649V12.7199C11.1776 13.2065 11.3219 13.6821 11.5922 14.0866C11.8625 14.4912 12.2467 14.8065 12.6962 14.9927C13.1457 15.1789 13.6403 15.2276 14.1175 15.1327C14.5947 15.0377 15.033 14.8034 15.3771 14.4594C15.7211 14.1154 15.9554 13.677 16.0503 13.1998C16.1452 12.7226 16.0965 12.228 15.9103 11.7785C15.7241 11.329 15.4088 10.9448 15.0043 10.6745C14.5997 10.4042 14.1241 10.2599 13.6376 10.2599H2.33258V10.2594L2.32233 10.2604C2.18078 10.275 2.04967 10.3416 1.95434 10.4472C1.85901 10.5529 1.80625 10.6901 1.80625 10.8324C1.80625 10.9747 1.85901 11.112 1.95434 11.2176C2.04967 11.3233 2.18078 11.3898 2.32233 11.4044L2.32228 11.4049H2.33258H13.7145M11.1776 12.6565L13.7145 11.4049M12.3176 12.7199C12.3181 12.9765 12.3936 13.2273 12.5349 13.4414C12.6762 13.6557 12.8771 13.8238 13.1128 13.9253C13.3485 14.0267 13.6087 14.057 13.8614 14.0123C14.1141 13.9676 14.3483 13.85 14.5349 13.6739C14.7216 13.4978 14.8527 13.271 14.912 13.0213C14.9713 12.7716 14.9562 12.5101 14.8687 12.2688C14.7812 12.0276 14.625 11.8173 14.4194 11.6637C14.2146 11.5108 13.9696 11.4209 13.7145 11.4049M12.3176 12.7199L13.7145 11.4049M17.4111 3.64993L17.4126 3.64991C18.065 3.64992 18.6907 3.9091 19.1521 4.37044C19.6134 4.83178 19.8726 5.45749 19.8726 6.10992C19.8726 6.76235 19.6134 7.38807 19.1521 7.8494C18.6907 8.31074 18.065 8.56992 17.4126 8.56992H1.36258C1.2114 8.56992 1.06642 8.50987 0.959527 8.40297C0.852631 8.29608 0.792578 8.1511 0.792578 7.99992C0.792578 7.84875 0.852631 7.70377 0.959527 7.59687C1.06642 7.48998 1.2114 7.42992 1.36258 7.42992H17.4945C17.7496 7.41399 17.9946 7.32407 18.1994 7.17112C18.405 7.01758 18.5612 6.80723 18.6487 6.566C18.7362 6.32477 18.7513 6.06321 18.692 5.81354C18.6327 5.56387 18.5016 5.33701 18.3149 5.16092C18.1283 4.98483 17.8941 4.86721 17.6414 4.82255C17.3887 4.77788 17.1285 4.80813 16.8928 4.90957C16.6571 5.011 16.4562 5.17919 16.3149 5.3934C16.1736 5.60756 16.0981 5.85837 16.0976 6.11492C16.0976 6.11498 16.0976 6.11504 16.0976 6.1151M17.4111 3.64993L15.9976 6.11492L16.0976 6.1151M17.4111 3.64993C16.7641 3.65953 16.1469 3.92365 15.6933 4.38508C15.2397 4.84645 14.9862 5.46794 14.9876 6.11492M17.4111 3.64993L14.9876 6.11492M16.0976 6.1151L16.0976 6.16992V6.17848L16.0961 6.18691C16.0718 6.32779 15.998 6.45536 15.888 6.54666C15.778 6.63796 15.6391 6.68699 15.4961 6.68491L15.4853 6.68475L15.4854 6.68418C15.358 6.66856 15.2395 6.61036 15.1493 6.51901C15.059 6.42766 15.0023 6.30852 14.9882 6.18088L14.987 6.16992H14.9876L14.9876 6.11514M16.0976 6.1151L14.9876 6.11514M14.9876 6.11514L15.0876 6.11492M14.9876 6.11514L15.0876 6.16992V6.11492M14.9876 6.11514L14.9876 6.11492M14.9876 6.11514C14.9876 6.11507 14.9876 6.115 14.9876 6.11492M15.0876 6.11492C15.0862 5.49416 15.3294 4.89785 15.7646 4.45518C16.1998 4.01251 16.7919 3.75913 17.4126 3.74992L15.0876 6.11492ZM10.3326 0.819921L10.3322 0.819923C9.68153 0.82268 9.05849 1.08307 8.59941 1.54412C8.14032 2.00516 7.88257 2.62929 7.88258 3.27992V3.33492H7.88204L7.88311 3.34522C7.89763 3.48548 7.96363 3.61538 8.06835 3.70981C8.17307 3.80424 8.30907 3.85651 8.45008 3.85651C8.59109 3.85651 8.72709 3.80424 8.83181 3.70981C8.93652 3.61538 9.00252 3.48548 9.01705 3.34522L9.01758 3.34528V3.33492V3.27992L9.01758 3.27973C9.01708 3.02172 9.09221 2.76922 9.23367 2.55344C9.37513 2.33767 9.57673 2.16808 9.81354 2.06565C10.0504 1.96322 10.312 1.93244 10.5661 1.97711C10.8202 2.02178 11.0557 2.13994 11.2434 2.31699C11.431 2.49403 11.5627 2.7222 11.6221 2.97328C11.6815 3.22437 11.666 3.48735 11.5776 3.72973C11.4891 3.9721 11.3316 4.18324 11.1244 4.33704C10.918 4.49028 10.6713 4.5799 10.4147 4.59492H2.33258V4.59439L2.32233 4.59545C2.18078 4.61003 2.04967 4.67658 1.95434 4.78223C1.85901 4.88788 1.80625 5.02512 1.80625 5.16742C1.80625 5.30972 1.85901 5.44697 1.95434 5.55262C2.04967 5.65827 2.18078 5.72482 2.32233 5.7394L2.32228 5.73992H2.33258H10.3326C10.985 5.73992 11.6107 5.48074 12.0721 5.0194C12.5334 4.55807 12.7926 3.93235 12.7926 3.27992C12.7926 2.62749 12.5334 2.00178 12.0721 1.54044C11.6107 1.0791 10.985 0.819922 10.3326 0.819921Z" fill="#303030" stroke="#5A5A5A" stroke-width="0.2"/>
</svg>