<svg width="12" height="23" viewBox="0 0 12 23" fill="none" xmlns="http://www.w3.org/2000/svg">
<path d="M5.6665 15.25C4.63097 15.25 3.7915 16.0895 3.7915 17.125C3.7915 18.1605 4.63097 19 5.6665 19C6.70204 19 7.5415 18.1605 7.5415 17.125C7.5415 16.0895 6.70204 15.25 5.6665 15.25ZM5.6665 15.25V7.75M2.6665 13.2836V4C2.6665 3.20435 2.98257 2.44129 3.54518 1.87868C4.10779 1.31607 4.87085 1 5.6665 1C6.46215 1 7.22521 1.31607 7.78782 1.87868C8.35043 2.44129 8.6665 3.20435 8.6665 4V13.2836L8.66724 13.2827C9.4672 13.9075 10.0522 14.7664 10.3406 15.7396C10.629 16.7128 10.6064 17.7517 10.276 18.7115C9.94565 19.6713 9.32392 20.504 8.49759 21.0934C7.67126 21.6829 6.68154 21.9997 5.6665 21.9997C4.65147 21.9997 3.66175 21.6829 2.83542 21.0934C2.00909 20.504 1.38736 19.6713 1.05697 18.7115C0.726589 17.7517 0.704022 16.7128 0.992423 15.7396C1.28082 14.7664 1.86581 13.9075 2.66577 13.2827L2.6665 13.2836Z" stroke="black" stroke-width="1.5" stroke-linecap="round" stroke-linejoin="round"/>
</svg>
