<svg xmlns="http://www.w3.org/2000/svg" width="21" height="21" viewBox="0 0 21 21" fill="none">
<path fill-rule="evenodd" clip-rule="evenodd" d="M10.5 9.33333C13.2289 9.33333 15.4412 7.24401 15.4412 4.66667C15.4412 2.08934 13.2289 0 10.5 0C7.77105 0 5.55882 2.08934 5.55882 4.66667C5.55882 7.24401 7.77105 9.33333 10.5 9.33333ZM10.5 8.16667C12.5467 8.16667 14.2059 6.59966 14.2059 4.66667C14.2059 2.73368 12.5467 1.16667 10.5 1.16667C8.4533 1.16667 6.79412 2.73368 6.79412 4.66667C6.79412 6.59966 8.4533 8.16667 10.5 8.16667ZM21 15.75C21 12.8505 18.5113 10.5 15.4412 10.5H5.55882C2.48875 10.5 0 12.8505 0 15.75C0 18.6495 2.48875 21 5.55882 21H10.5C11.8644 21 12.9706 19.9553 12.9706 18.6667C12.9706 17.5551 12.1476 16.625 11.0456 16.3904L13.0775 11.6667H15.4412C17.829 11.6667 19.7647 13.4948 19.7647 15.75C19.7647 18.0052 17.829 19.8333 15.4412 19.8333V17.5C16.4646 17.5 17.2941 16.7165 17.2941 15.75C17.2941 14.7835 16.4646 14 15.4412 14H14.2059V21H15.4412C18.5113 21 21 18.6495 21 15.75ZM5.55882 11.6667C3.171 11.6667 1.23529 13.4948 1.23529 15.75C1.23529 16.8064 1.66008 17.7691 2.35713 18.4942L4.02416 16.7308C3.82348 16.4513 3.70588 16.1137 3.70588 15.75C3.70588 14.7835 4.53544 14 5.55882 14H6.6058L8.81166 11.6667H5.55882ZM10.5676 17.5017L9.56464 19.8333H10.5C11.1823 19.8333 11.7353 19.311 11.7353 18.6667C11.7353 18.0437 11.2184 17.5349 10.5676 17.5017ZM8.23132 19.8333L11.7442 11.6667H10.4677L3.30985 19.2381C3.96511 19.6157 4.73507 19.8333 5.55882 19.8333H8.23132ZM16.0588 15.75C16.0588 16.0722 15.7823 16.3333 15.4412 16.3333V15.1667C15.7823 15.1667 16.0588 15.4278 16.0588 15.75ZM5.50046 15.1692C5.18669 15.197 4.94118 15.4464 4.94118 15.75L4.9413 15.7607L5.50046 15.1692Z" fill="#303030"/>
</svg>