<svg xmlns="http://www.w3.org/2000/svg" width="24" height="24" viewBox="0 0 24 24" fill="none">
<path d="M18.9669 11.9999L21.0594 9.9074C21.5299 9.45283 21.9052 8.90911 22.1634 8.30796C22.4216 7.70681 22.5575 7.06026 22.5631 6.40605C22.5687 5.75183 22.444 5.10303 22.1963 4.49752C21.9485 3.892 21.5827 3.34189 21.12 2.87927C20.6574 2.41665 20.1073 2.05079 19.5018 1.80303C18.8963 1.55527 18.2475 1.43057 17.5933 1.43622C16.9391 1.44186 16.2925 1.57773 15.6914 1.8359C15.0902 2.09407 14.5465 2.46937 14.0919 2.9399L11.9994 5.0324L9.90691 2.9399C9.45234 2.46937 8.90862 2.09407 8.30747 1.8359C7.70632 1.57773 7.05978 1.44186 6.40556 1.43622C5.75134 1.43057 5.10255 1.55527 4.49703 1.80303C3.89151 2.05079 3.3414 2.41665 2.87878 2.87927C2.41616 3.34189 2.0503 3.892 1.80254 4.49752C1.55478 5.10303 1.43009 5.75183 1.43573 6.40605C1.44137 7.06026 1.57724 7.70681 1.83541 8.30796C2.09358 8.90911 2.46888 9.45283 2.93941 9.9074L5.03191 11.9999L2.93941 14.0924C2.46888 14.547 2.09358 15.0907 1.83541 15.6918C1.57724 16.293 1.44137 16.9395 1.43573 17.5938C1.43009 18.248 1.55478 18.8968 1.80254 19.5023C2.0503 20.1078 2.41616 20.6579 2.87878 21.1205C3.3414 21.5832 3.89151 21.949 4.49703 22.1968C5.10255 22.4445 5.75134 22.5692 6.40556 22.5636C7.05978 22.5579 7.70632 22.4221 8.30747 22.1639C8.90862 21.9057 9.45234 21.5304 9.90691 21.0599L11.9994 18.9674L14.0919 21.0599C14.5465 21.5304 15.0902 21.9057 15.6914 22.1639C16.2925 22.4221 16.9391 22.5579 17.5933 22.5636C18.2475 22.5692 18.8963 22.4445 19.5018 22.1968C20.1073 21.949 20.6574 21.5832 21.12 21.1205C21.5827 20.6579 21.9485 20.1078 22.1963 19.5023C22.444 18.8968 22.5687 18.248 22.5631 17.5938C22.5575 16.9395 22.4216 16.293 22.1634 15.6918C21.9052 15.0907 21.5299 14.547 21.0594 14.0924L18.9669 11.9999ZM15.1569 4.0049C15.4714 3.6708 15.8498 3.40323 16.2696 3.21808C16.6894 3.03292 17.1421 2.93394 17.6009 2.927C18.0597 2.92006 18.5152 3.00531 18.9404 3.17768C19.3656 3.35006 19.7519 3.60606 20.0763 3.9305C20.4008 4.25494 20.6568 4.64122 20.8291 5.06644C21.0015 5.49166 21.0868 5.94716 21.0798 6.40594C21.0729 6.86472 20.9739 7.31743 20.7887 7.73725C20.6036 8.15706 20.336 8.53542 20.0019 8.8499L17.9094 10.9424L13.0569 6.0974L15.1569 4.0049ZM16.8444 11.9999L11.9994 16.8449L7.15441 11.9999L11.9994 7.1549L16.8444 11.9999ZM4.00441 8.8424C3.67031 8.52792 3.40275 8.14956 3.21759 7.72975C3.03243 7.30993 2.93345 6.85722 2.92651 6.39844C2.91957 5.93966 3.00482 5.48416 3.1772 5.05894C3.34957 4.63372 3.60557 4.24744 3.93001 3.923C4.25445 3.59856 4.64074 3.34256 5.06595 3.17018C5.49117 2.99781 5.94668 2.91256 6.40545 2.9195C6.86423 2.92644 7.31695 3.02542 7.73676 3.21058C8.15657 3.39574 8.53493 3.6633 8.84941 3.9974L10.9419 6.0899L6.09691 10.9424L4.00441 8.8424ZM8.84941 19.9949C8.53493 20.329 8.15657 20.5966 7.73676 20.7817C7.31695 20.9669 6.86423 21.0659 6.40545 21.0728C5.94668 21.0797 5.49117 20.9945 5.06595 20.8221C4.64074 20.6497 4.25445 20.3937 3.93001 20.0693C3.60557 19.7449 3.34957 19.3586 3.1772 18.9334C3.00482 18.5081 2.91957 18.0526 2.92651 17.5939C2.93345 17.1351 3.03243 16.6824 3.21759 16.2626C3.40275 15.8427 3.67031 15.4644 4.00441 15.1499L6.09691 13.0574L10.9419 17.9024L8.84941 19.9949ZM20.0019 19.9949C19.3592 20.637 18.4879 20.9977 17.5794 20.9977C16.6709 20.9977 15.7996 20.637 15.1569 19.9949L13.0644 17.9024L17.9094 13.0574L20.0019 15.1499C20.644 15.7926 21.0047 16.6639 21.0047 17.5724C21.0047 18.4809 20.644 19.3522 20.0019 19.9949Z" fill="#303030"/>
<path d="M11.9992 12.7498C12.1727 12.7488 12.3404 12.6877 12.4739 12.5769C12.6073 12.4661 12.6983 12.3125 12.7312 12.1422C12.7641 11.9719 12.737 11.7954 12.6545 11.6428C12.5719 11.4903 12.439 11.3711 12.2785 11.3055C12.1179 11.2399 11.9395 11.232 11.7738 11.2831C11.608 11.3343 11.4651 11.4413 11.3694 11.5859C11.2737 11.7306 11.231 11.904 11.2488 12.0765C11.2665 12.2491 11.3435 12.4101 11.4667 12.5323C11.6104 12.6693 11.8006 12.747 11.9992 12.7498ZM13.5892 11.1598C13.7627 11.1588 13.9304 11.0977 14.0639 10.9869C14.1973 10.8761 14.2883 10.7225 14.3212 10.5522C14.3541 10.3819 14.327 10.2054 14.2445 10.0528C14.1619 9.90029 14.029 9.78106 13.8685 9.71547C13.7079 9.64988 13.5295 9.64198 13.3638 9.69312C13.198 9.74426 13.0551 9.85126 12.9594 9.99592C12.8637 10.1406 12.821 10.314 12.8388 10.4865C12.8565 10.6591 12.9335 10.8201 13.0567 10.9423C13.2004 11.0793 13.3906 11.157 13.5892 11.1598ZM15.1792 12.7498C15.3778 12.747 15.568 12.6693 15.7117 12.5323C15.782 12.4626 15.8378 12.3796 15.8759 12.2882C15.9139 12.1968 15.9335 12.0988 15.9335 11.9998C15.9335 11.9008 15.9139 11.8027 15.8759 11.7113C15.8378 11.62 15.782 11.537 15.7117 11.4673C15.6243 11.3806 15.517 11.3168 15.3992 11.2815C15.2814 11.2461 15.1567 11.2402 15.036 11.2644C14.9154 11.2886 14.8026 11.3421 14.7075 11.4202C14.6125 11.4983 14.5381 11.5986 14.4909 11.7122C14.4437 11.8258 14.4252 11.9493 14.437 12.0717C14.4488 12.1942 14.4906 12.3119 14.5586 12.4144C14.6266 12.5169 14.7188 12.6011 14.827 12.6596C14.9352 12.7181 15.0562 12.7491 15.1792 12.7498ZM13.5892 14.3398C13.7627 14.3388 13.9304 14.2777 14.0639 14.1669C14.1973 14.0561 14.2883 13.9025 14.3212 13.7322C14.3541 13.5619 14.327 13.3854 14.2445 13.2328C14.1619 13.0803 14.029 12.9611 13.8685 12.8955C13.7079 12.8299 13.5295 12.822 13.3638 12.8731C13.198 12.9243 13.0551 13.0313 12.9594 13.1759C12.8637 13.3206 12.821 13.494 12.8388 13.6665C12.8565 13.8391 12.9335 14.0001 13.0567 14.1223C13.2004 14.2593 13.3906 14.337 13.5892 14.3398ZM11.9992 15.9298C12.0979 15.9303 12.1957 15.9114 12.2871 15.8741C12.3785 15.8368 12.4616 15.7818 12.5317 15.7123C12.6012 15.6422 12.6562 15.5591 12.6935 15.4677C12.7308 15.3763 12.7498 15.2785 12.7492 15.1798C12.7492 14.9809 12.6702 14.7901 12.5295 14.6494C12.3889 14.5088 12.1981 14.4298 11.9992 14.4298C11.8003 14.4298 11.6095 14.5088 11.4689 14.6494C11.3282 14.7901 11.2492 14.9809 11.2492 15.1798C11.2486 15.2785 11.2675 15.3763 11.3049 15.4677C11.3422 15.5591 11.3972 15.6422 11.4667 15.7123C11.5368 15.7818 11.6199 15.8368 11.7113 15.8741C11.8026 15.9114 11.9005 15.9303 11.9992 15.9298ZM10.4092 14.3398C10.5827 14.3388 10.7504 14.2777 10.8839 14.1669C11.0173 14.0561 11.1083 13.9025 11.1412 13.7322C11.1741 13.5619 11.147 13.3854 11.0645 13.2328C10.9819 13.0803 10.849 12.9611 10.6884 12.8955C10.5279 12.8299 10.3495 12.822 10.1838 12.8731C10.018 12.9243 9.8751 13.0313 9.77938 13.1759C9.68366 13.3206 9.64105 13.494 9.65879 13.6665C9.67653 13.8391 9.75354 14.0001 9.87669 14.1223C10.0204 14.2593 10.2106 14.337 10.4092 14.3398ZM8.24919 12.5323C8.31927 12.6018 8.40238 12.6568 8.49376 12.6941C8.58514 12.7314 8.68299 12.7503 8.78169 12.7498C8.93002 12.7492 9.07484 12.7046 9.19782 12.6216C9.32081 12.5387 9.41645 12.4212 9.47264 12.2839C9.52884 12.1466 9.54306 11.9958 9.51353 11.8504C9.48399 11.7051 9.41201 11.5717 9.30669 11.4673C9.16617 11.3276 8.97608 11.2492 8.77794 11.2492C8.5798 11.2492 8.38971 11.3276 8.24919 11.4673C8.1789 11.537 8.1231 11.62 8.08502 11.7113C8.04695 11.8027 8.02734 11.9008 8.02734 11.9998C8.02734 12.0988 8.04695 12.1968 8.08502 12.2882C8.1231 12.3796 8.1789 12.4626 8.24919 12.5323ZM10.4092 11.1598C10.5322 11.1591 10.6532 11.1281 10.7614 11.0696C10.8696 11.0111 10.9618 10.9269 11.0298 10.8244C11.0978 10.7219 11.1396 10.6042 11.1514 10.4817C11.1632 10.3593 11.1447 10.2358 11.0975 10.1222C11.0503 10.0086 10.9759 9.9083 10.8809 9.83022C10.7858 9.75214 10.673 9.69864 10.5524 9.67444C10.4317 9.65024 10.307 9.65609 10.1892 9.69146C10.0714 9.72683 9.96404 9.79065 9.87669 9.87728C9.80718 9.94736 9.75219 10.0305 9.71486 10.1218C9.67754 10.2132 9.65862 10.3111 9.65919 10.4098C9.65919 10.6087 9.73821 10.7995 9.87886 10.9401C10.0195 11.0808 10.2103 11.1598 10.4092 11.1598ZM11.9992 9.56978C12.1981 9.56978 12.3889 9.49076 12.5295 9.35011C12.6702 9.20946 12.7492 9.01869 12.7492 8.81978C12.7498 8.72107 12.7308 8.62323 12.6935 8.53185C12.6562 8.44047 12.6012 8.35736 12.5317 8.28728C12.462 8.21698 12.379 8.16119 12.2876 8.12311C12.1962 8.08503 12.0982 8.06543 11.9992 8.06543C11.9002 8.06543 11.8022 8.08503 11.7108 8.12311C11.6194 8.16119 11.5364 8.21698 11.4667 8.28728C11.3972 8.35736 11.3422 8.44047 11.3049 8.53185C11.2675 8.62323 11.2486 8.72107 11.2492 8.81978C11.2492 9.01869 11.3282 9.20946 11.4689 9.35011C11.6095 9.49076 11.8003 9.56978 11.9992 9.56978Z" fill="#303030"/>
</svg>