<svg width="24" height="24" viewBox="0 0 24 24" fill="none" xmlns="http://www.w3.org/2000/svg">
<path d="M15 6.375H15.75V5.625H15V5.25C15 5.15054 14.9605 5.05516 14.8902 4.98484C14.8198 4.91451 14.7245 4.875 14.625 4.875H9.375C9.27554 4.875 9.18016 4.91451 9.10983 4.98484C9.03951 5.05516 9 5.15054 9 5.25V5.625H8.25V6.375H9V7.125H0.375V7.875H9V9.75H8.25V10.5H9V12.375H0.375V13.125H9V13.875H8.25V14.625H9V15C9 15.0995 9.03951 15.1948 9.10983 15.2652C9.18016 15.3355 9.27554 15.375 9.375 15.375H14.625C14.7245 15.375 14.8198 15.3355 14.8902 15.2652C14.9605 15.1948 15 15.0995 15 15V14.625H15.75V13.875H15V13.125H16.9417C16.9023 13.2463 16.8798 13.3725 16.875 13.5C16.875 13.8978 17.033 14.2794 17.3143 14.5607C17.5956 14.842 17.9772 15 18.375 15C18.7728 15 19.1544 14.842 19.4357 14.5607C19.717 14.2794 19.875 13.8978 19.875 13.5C19.8702 13.3725 19.8477 13.2463 19.8083 13.125H23.625V12.375H19.4932C19.2503 11.9133 18.9799 11.4665 18.6836 11.037C18.6473 10.9897 18.6005 10.9514 18.547 10.925C18.4935 10.8987 18.4347 10.885 18.375 10.885C18.3153 10.885 18.2565 10.8987 18.203 10.925C18.1495 10.9514 18.1027 10.9897 18.0664 11.037C17.7701 11.4665 17.4997 11.9133 17.2568 12.375H15V10.5H15.75V9.75H15V7.875H17.4697L18 8.40525V9.75C18 9.81969 18.0194 9.888 18.056 9.94729C18.0926 10.0066 18.145 10.0545 18.2074 10.0856L19.7074 10.8356C19.7595 10.8614 19.8168 10.8749 19.875 10.875C19.9344 10.875 19.993 10.8609 20.0459 10.8338C20.0988 10.8068 20.1445 10.7675 20.1793 10.7193C20.214 10.6711 20.2368 10.6154 20.2458 10.5566C20.2548 10.4979 20.2497 10.4379 20.2309 10.3815L19.9309 9.47662L20.5174 8.89013C20.5786 8.82878 20.6168 8.7481 20.6252 8.66181C20.6337 8.57553 20.612 8.48897 20.5639 8.41687L20.2005 7.875H23.625V7.125H15V6.375ZM9.75 5.625H11.625V14.625H9.75V5.625ZM14.25 14.625H12.375V5.625H14.25V14.625ZM18.375 11.9329C18.7751 12.5704 19.125 13.2514 19.125 13.5C19.125 13.6989 19.046 13.8897 18.9053 14.0303C18.7647 14.171 18.5739 14.25 18.375 14.25C18.1761 14.25 17.9853 14.171 17.8447 14.0303C17.704 13.8897 17.625 13.6989 17.625 13.5C17.625 13.2517 17.9749 12.5722 18.375 11.9329ZM19.7674 8.57737L19.2345 9.11025C19.1853 9.15951 19.1508 9.22148 19.1348 9.28923C19.1189 9.35699 19.1221 9.42784 19.1441 9.49387L19.233 9.75975L18.75 9.51825V8.25C18.75 8.15055 18.7105 8.05518 18.6401 7.98487L18.5303 7.875H19.2994L19.7674 8.57737ZM21 18.75C21.3978 18.75 21.7794 18.592 22.0607 18.3107C22.342 18.0294 22.5 17.6478 22.5 17.25C22.5 16.5472 21.5078 15.075 21.3086 14.787C21.2723 14.7397 21.2255 14.7014 21.172 14.675C21.1185 14.6487 21.0597 14.635 21 14.635C20.9403 14.635 20.8815 14.6487 20.828 14.675C20.7745 14.7014 20.7277 14.7397 20.6914 14.787C20.4922 15.075 19.5 16.5472 19.5 17.25C19.5 17.6478 19.658 18.0294 19.9393 18.3107C20.2206 18.592 20.6022 18.75 21 18.75ZM21 15.6829C21.4001 16.3204 21.75 17.0014 21.75 17.25C21.75 17.4489 21.671 17.6397 21.5303 17.7803C21.3897 17.921 21.1989 18 21 18C20.8011 18 20.6103 17.921 20.4697 17.7803C20.329 17.6397 20.25 17.4489 20.25 17.25C20.25 17.0017 20.5999 16.3222 21 15.6829ZM17.625 18C17.625 17.5208 17.0543 16.6421 16.8086 16.287C16.7723 16.2397 16.7255 16.2014 16.672 16.175C16.6185 16.1487 16.5597 16.135 16.5 16.135C16.4403 16.135 16.3815 16.1487 16.328 16.175C16.2745 16.2014 16.2277 16.2397 16.1914 16.287C15.9457 16.6421 15.375 17.5208 15.375 18C15.375 18.2984 15.4935 18.5845 15.7045 18.7955C15.9155 19.0065 16.2016 19.125 16.5 19.125C16.7984 19.125 17.0845 19.0065 17.2955 18.7955C17.5065 18.5845 17.625 18.2984 17.625 18ZM16.125 18C16.2063 17.7134 16.3329 17.4416 16.5 17.1949C16.6671 17.4416 16.7937 17.7134 16.875 18C16.875 18.0995 16.8355 18.1948 16.7652 18.2652C16.6948 18.3355 16.5995 18.375 16.5 18.375C16.4005 18.375 16.3052 18.3355 16.2348 18.2652C16.1645 18.1948 16.125 18.0995 16.125 18Z" fill="#303030" stroke="#303030" stroke-width="0.25"/>
</svg>
