<svg xmlns="http://www.w3.org/2000/svg" width="24" height="25" viewBox="0 0 24 25" fill="none">
<g clip-path="url(#clip0_1278_4205)">
<path d="M-2.62254 11.7337C-2.62254 11.7337 2.286 12.9997 2.32259 13C2.40243 12.9976 2.48057 12.973 2.55027 12.9282C2.61997 12.8834 2.67913 12.8199 2.72266 12.743C2.76619 12.6662 2.79278 12.5783 2.80014 12.487C2.8075 12.3957 2.7954 12.3038 2.76489 12.219C2.548 11.6583 1.40223 8.85659 0.0582488 8.56294L-1.93052 8.01541C-2.05776 7.98353 -2.19081 8.01064 -2.30071 8.09084C-2.41061 8.17103 -2.48845 8.29783 -2.51729 8.44359L-2.99005 11.0797C-3.01562 11.2223 -2.99145 11.3706 -2.92273 11.4929C-2.854 11.6152 -2.74622 11.7017 -2.62254 11.7337ZM-1.67015 9.22972C-1.67015 9.22972 -0.136199 9.65166 -0.12663 9.65356C0.324164 9.74539 0.945421 10.6925 1.42126 11.6417L-1.94635 10.7698L-1.67015 9.22972ZM26.3029 8.08675C26.2482 8.04675 26.187 8.01982 26.123 8.00756C26.0591 7.9953 25.9936 7.99797 25.9305 8.0154L23.9418 8.56294C22.5978 8.85658 21.452 11.6583 21.2351 12.219C21.2051 12.3038 21.1933 12.3956 21.2008 12.4867C21.2084 12.5778 21.235 12.6654 21.2785 12.7422C21.3219 12.8189 21.3809 12.8824 21.4504 12.9273C21.5198 12.9722 21.5977 12.9971 21.6774 13C21.7127 13 26.6225 11.7337 26.6225 11.7337C26.7462 11.7017 26.854 11.6152 26.9227 11.4929C26.9914 11.3706 27.0156 11.2223 26.99 11.0797L26.5173 8.44359C26.5042 8.37065 26.4785 8.30148 26.4417 8.24018C26.4048 8.17888 26.3576 8.12671 26.3029 8.08675ZM22.5781 11.6418C23.0534 10.6928 23.6746 9.74566 24.1267 9.65357C24.1362 9.65167 25.6702 9.22972 25.6702 9.22972L25.9464 10.7698L22.5781 11.6418Z" fill="black"/>
<path d="M27.4999 21.0303H19.5043C19.676 21.0297 19.8472 21.0122 20.0152 20.9779C20.6123 20.8562 21.1427 20.5267 21.5063 20.0517C21.8699 19.5768 22.0415 18.9892 21.9887 18.3999L27.6074 17.1996C27.7368 17.1718 27.8496 17.0954 27.9209 16.9871C27.9922 16.8787 28.0163 16.7474 27.9878 16.6219C27.9593 16.4964 27.8806 16.387 27.7689 16.3178C27.6572 16.2485 27.5218 16.2251 27.3923 16.2526L21.7062 17.4674C21.4503 16.9999 21.0434 16.6267 20.5479 16.4046C20.0524 16.1826 19.4954 16.124 18.9623 16.2379C18.4292 16.3518 17.9493 16.6319 17.5959 17.0353C17.2426 17.4387 17.0353 17.9432 17.0057 18.4716L14.1557 19.0805C14.025 19.1075 13.8885 19.0837 13.7756 19.0144C13.6627 18.945 13.5823 18.8355 13.5516 18.7094C13.4774 18.3805 13.3992 18.028 13.3257 17.6936L14.1212 17.5007C14.2499 17.4695 14.3606 17.3901 14.4288 17.2798C14.4971 17.1696 14.5174 17.0375 14.4852 16.9128C14.4531 16.788 14.3711 16.6807 14.2574 16.6146C14.1437 16.5484 14.0075 16.5287 13.8788 16.5599L13.1185 16.7442C13.0595 16.4716 13.0166 16.2722 13.0021 16.2046C12.9868 16.0209 13.0516 15.8255 13.3895 15.4504C13.7185 15.0854 14.5599 14.3918 16.4996 13.8471C18.3925 13.2337 20.0285 12.0406 21.1613 10.4475C21.1703 10.4344 21.1788 10.4209 21.1864 10.4069C21.5603 9.72948 22.8264 7.89578 24.2007 7.49829L27.5804 6.96325C27.7113 6.94254 27.8284 6.87226 27.9058 6.76789C27.9833 6.66351 28.0148 6.53359 27.9934 6.40669C27.972 6.2798 27.8996 6.16633 27.7919 6.09125C27.6842 6.01616 27.5502 5.98562 27.4193 6.00633L24.0097 6.54611C23.9907 6.54907 23.972 6.5531 23.9535 6.55819C21.9566 7.10851 20.4783 9.64165 20.3173 9.92693C19.3096 11.3154 17.8766 12.3611 16.2215 12.9158C14.6022 13.3704 13.329 14.0439 12.6365 14.8124C12.2679 15.2216 11.937 15.6888 12.0101 16.3309C12.0118 16.3462 12.0143 16.3614 12.0176 16.3764C12.0176 16.3764 12.3197 17.7866 12.5748 18.9168C12.6508 19.242 12.8387 19.5324 13.1077 19.7401C13.3768 19.9478 13.7107 20.0605 14.0547 20.0595C14.1567 20.0595 17.1529 19.433 17.1529 19.433C17.3265 19.8991 17.6435 20.3023 18.0612 20.588C18.4789 20.8737 18.977 21.0281 19.4882 21.0303H4.51182C5.023 21.0281 5.52113 20.8737 5.93882 20.588C6.3565 20.3023 6.67356 19.8991 6.84709 19.433C6.84709 19.433 9.84719 20.0605 9.94777 20.0605C10.2914 20.0607 10.6248 19.9476 10.8933 19.7398C11.1618 19.5319 11.3494 19.2417 11.4252 18.9168C11.6803 17.7866 11.9824 16.3764 11.9824 16.3764C11.9857 16.3614 11.9882 16.3462 11.9899 16.331C12.063 15.6888 11.7321 15.2216 11.3634 14.8124C10.671 14.0439 9.39786 13.3704 7.77849 12.9158C6.12152 12.3645 4.68755 11.3181 3.68269 9.92693C3.52169 9.64166 2.04343 7.10851 0.0464954 6.55819C0.0280375 6.55311 0.00928831 6.54908 -0.00965691 6.54612L-3.41929 6.00635C-3.55014 5.98574 -3.68407 6.01635 -3.79165 6.09143C-3.89924 6.16651 -3.97166 6.27993 -3.99302 6.40676C-4.01438 6.53359 -3.98291 6.66345 -3.90555 6.76781C-3.82818 6.87216 -3.71124 6.94246 -3.58042 6.96326L-0.200681 7.49842C1.45018 7.97475 2.80015 10.3828 2.8137 10.4073C2.82126 10.421 2.82981 10.4346 2.83872 10.4475C3.97149 12.0406 5.60752 13.2337 7.50041 13.8472C9.44009 14.3918 10.2815 15.0854 10.6104 15.4504C10.9484 15.8255 11.0132 16.0209 10.9979 16.2046C10.9834 16.2722 10.9405 16.4716 10.8815 16.7442L10.1212 16.5599C9.99254 16.5287 9.85634 16.5484 9.74261 16.6146C9.62887 16.6808 9.54692 16.788 9.51477 16.9128C9.48262 17.0375 9.50291 17.1696 9.57118 17.2798C9.63945 17.3901 9.75011 17.4695 9.8788 17.5007L10.6743 17.6936C10.6008 18.0281 10.5226 18.3805 10.4484 18.7094C10.4184 18.8346 10.3392 18.9435 10.2277 19.0131C10.1163 19.0826 9.98118 19.1073 9.85121 19.0819L6.99426 18.4715C6.96439 17.9433 6.75691 17.4391 6.40354 17.0359C6.05017 16.6328 5.57035 16.3529 5.03741 16.239C4.50448 16.1252 3.94774 16.1836 3.4523 16.4054C2.95686 16.6272 2.54997 17.0002 2.29382 17.4674L-3.39232 16.2526C-3.5218 16.2251 -3.65724 16.2485 -3.7689 16.3178C-3.88055 16.387 -3.95928 16.4964 -3.98778 16.6219C-4.01628 16.7474 -3.99223 16.8787 -3.92091 16.9871C-3.84959 17.0954 -3.73682 17.1718 -3.6074 17.1996L2.01131 18.3999C1.9585 18.9892 2.1301 19.5768 2.49371 20.0517C2.85731 20.5267 3.38774 20.8562 3.98481 20.9779C4.15283 21.0122 4.32403 21.0297 4.49574 21.0303H-3.49986C-3.6325 21.0303 -3.75972 21.0814 -3.85351 21.1723C-3.94731 21.2632 -4 21.3866 -4 21.5151C-4 21.6437 -3.94731 21.7671 -3.85351 21.858C-3.75972 21.9489 -3.6325 22 -3.49986 22H27.4999C27.6325 22 27.7597 21.9489 27.8535 21.858C27.9473 21.7671 28 21.6437 28 21.5151C28 21.3866 27.9473 21.2632 27.8535 21.1723C27.7597 21.0814 27.6325 21.0303 27.4999 21.0303ZM18.0386 18.9046C17.9971 18.7184 17.9938 18.526 18.029 18.3385C18.0642 18.151 18.1372 17.9721 18.2437 17.8119C18.4058 17.5711 18.6378 17.3822 18.9105 17.2693C19.1833 17.1563 19.4845 17.1242 19.776 17.1772C20.0675 17.2301 20.3363 17.3657 20.5483 17.5667C20.7604 17.7677 20.9062 18.0252 20.9674 18.3065C21.0285 18.5879 21.0022 18.8805 20.8918 19.1473C20.7814 19.4142 20.5919 19.6433 20.3472 19.8058C20.1024 19.9682 19.8135 20.0567 19.517 20.06C19.2204 20.0633 18.9295 19.9812 18.681 19.8242C18.5168 19.7194 18.3756 19.5842 18.2654 19.4264C18.1552 19.2686 18.0781 19.0913 18.0386 18.9046ZM4.19087 20.029C3.99796 19.9901 3.81493 19.9145 3.65238 19.8066C3.48982 19.6987 3.35097 19.5605 3.24387 19.4002C3.08187 19.1593 2.99719 18.8773 3.00055 18.5897C3.0039 18.3022 3.09514 18.0221 3.26272 17.7848C3.4303 17.5475 3.6667 17.3638 3.94202 17.2568C4.21734 17.1497 4.51921 17.1243 4.80946 17.1836C5.09971 17.2429 5.3653 17.3843 5.57265 17.5899C5.77999 17.7956 5.91978 18.0562 5.97432 18.3388C6.02887 18.6215 5.99572 18.9135 5.87908 19.1779C5.76244 19.4423 5.56755 19.6672 5.31904 19.8242C5.15432 19.929 4.96979 20.0011 4.77613 20.0362C4.58247 20.0714 4.38354 20.0689 4.19087 20.029Z" fill="black"/>
<path d="M4.22991 7.28953L7.08016 8.9271C7.19467 8.99123 7.33381 9.01429 7.46783 8.99133C7.60184 8.96837 7.7201 8.90122 7.7973 8.80424C7.87349 8.70613 7.90125 8.58601 7.87447 8.4703C7.8477 8.35459 7.76858 8.25276 7.65452 8.18722L5.97756 7.22372L7.79679 7.04473C7.87955 7.03531 7.95849 7.009 8.02703 6.96801C8.09556 6.92701 8.15171 6.87251 8.19078 6.80906C8.22986 6.74561 8.25073 6.67504 8.25165 6.60324C8.25257 6.53144 8.23352 6.46049 8.19608 6.39632L7.60062 5.41869L9.72446 5.81154C9.80173 5.82439 9.88136 5.82214 9.95748 5.80498C10.0336 5.78782 10.1043 5.75617 10.1643 5.71238C10.2243 5.66858 10.2721 5.61376 10.3042 5.55195C10.3362 5.49014 10.3518 5.42292 10.3496 5.35526L10.2327 3.26069L11.8041 4.41305C11.8601 4.45301 11.9251 4.48249 11.9951 4.49961C12.0651 4.51673 12.1384 4.52112 12.2105 4.51249C12.2825 4.50387 12.3517 4.48242 12.4135 4.44951C12.4754 4.41661 12.5286 4.37297 12.5698 4.32139L13.9306 2.566L14.5018 4.89496C14.5214 4.96819 14.5619 5.03604 14.6197 5.09233C14.6776 5.14862 14.7509 5.19155 14.833 5.2172C14.915 5.24286 15.0033 5.25041 15.0897 5.23918C15.176 5.22795 15.2577 5.19829 15.3273 5.15292L17.0509 3.98763L16.098 6.56259C16.0751 6.62963 16.0706 6.70031 16.0848 6.76911C16.099 6.8379 16.1315 6.90294 16.1798 6.95911C16.2281 7.01529 16.2909 7.06108 16.3632 7.09289C16.4355 7.1247 16.5154 7.14167 16.5967 7.14247L18.1936 7.12661L17.3088 7.84399C17.209 7.92489 17.1506 8.03658 17.1465 8.15449C17.1424 8.27241 17.1929 8.3869 17.287 8.47277C17.381 8.55864 17.5109 8.60886 17.648 8.61238C17.7851 8.6159 17.9182 8.57244 18.018 8.49155L19.0851 7.62633C19.378 7.43326 19.6444 7.21215 19.8792 6.96728C20.1121 6.66657 20.0188 6.22373 19.5064 6.22373L17.3006 6.24567L18.5466 2.87882C18.577 2.78859 18.5737 2.69242 18.5372 2.60389C18.5007 2.51535 18.4328 2.4389 18.343 2.38534C18.2533 2.33178 18.1463 2.30379 18.0371 2.30534C17.9279 2.30689 17.822 2.33789 17.7343 2.39396L15.3421 4.0113L14.6886 1.34727C14.6658 1.26272 14.6149 1.18568 14.5423 1.12547C14.4696 1.06527 14.3781 1.02449 14.279 1.00809C14.1799 0.991682 14.0774 1.00035 13.984 1.03304C13.8905 1.06574 13.81 1.12105 13.7524 1.19228L12.0322 3.41122L9.99437 1.91683C9.91705 1.86215 9.82305 1.82778 9.72362 1.81783C9.62419 1.80788 9.52353 1.82278 9.43368 1.86073C9.34383 1.89868 9.26859 1.95809 9.21695 2.03185C9.16532 2.10561 9.13947 2.1906 9.1425 2.27666L9.2844 4.82002L6.73905 4.34919C6.64337 4.33321 6.54439 4.34058 6.45332 4.37047C6.36226 4.40036 6.28274 4.45158 6.22377 4.51834C6.16479 4.58509 6.12872 4.66471 6.11964 4.74818C6.11055 4.83165 6.12881 4.91565 6.17235 4.99065L6.93003 6.23448L4.4584 6.47766C4.35315 6.48802 4.25415 6.52592 4.17476 6.58625C4.09538 6.64657 4.03944 6.72641 4.01452 6.81497C3.9896 6.90352 3.99689 6.99652 4.03541 7.0814C4.07393 7.16627 4.14182 7.23892 4.22991 7.28953Z" fill="black"/>
</g>
<defs>
<clipPath id="clip0_1278_4205">
<rect width="24" height="24" fill="white" transform="translate(0 0.5)"/>
</clipPath>
</defs>
</svg>