<svg width="25" height="24" viewBox="0 0 25 24" fill="none" xmlns="http://www.w3.org/2000/svg">
<g clip-path="url(#clip0_1275_7840)">
<path d="M12.1662 6V18M12.1662 6L9.91617 3.75M12.1662 6L14.4162 3.75M12.1662 18L9.91617 20.25M12.1662 18L14.4162 20.25M6.96998 9L17.3624 15M6.96998 9L3.89648 9.82359M6.96998 9L6.14648 5.92641M17.3624 15L18.1859 18.0736M17.3624 15L20.4359 14.1764M6.96998 15L17.3624 9M6.96998 15L6.14648 18.0736M6.96998 15L3.89648 14.1764M17.3624 9L20.4359 9.82359M17.3624 9L18.1859 5.92641" stroke="#303030" stroke-width="1.5" stroke-linecap="round" stroke-linejoin="round"/>
</g>
<defs>
<clipPath id="clip0_1275_7840">
<rect width="24" height="24" fill="white" transform="translate(0.166016)"/>
</clipPath>
</defs>
</svg>
